<svg xmlns="http://www.w3.org/2000/svg" viewBox="0 0 72 72" role="img" aria-labelledby="logo-title">
  <title id="logo-title">FP Pericias Judiciais</title>
  <defs>
    <linearGradient id="gold" x1="14" y1="12" x2="58" y2="62" gradientUnits="userSpaceOnUse">
      <stop offset="0" stop-color="#f1c46b"/>
      <stop offset="0.48" stop-color="#c79a3b"/>
      <stop offset="1" stop-color="#8f6920"/>
    </linearGradient>
    <linearGradient id="navy" x1="8" y1="7" x2="64" y2="66" gradientUnits="userSpaceOnUse">
      <stop offset="0" stop-color="#173d63"/>
      <stop offset="1" stop-color="#0b2136"/>
    </linearGradient>
  </defs>
  <rect x="4" y="4" width="64" height="64" rx="14" fill="url(#navy)"/>
  <rect x="7" y="7" width="58" height="58" rx="11" fill="none" stroke="url(#gold)" stroke-width="2"/>
  <path d="M20 18h24c6.9 0 11.5 4.2 11.5 10.3S50.9 38.8 44 38.8H31v15.7h-7V24h-4v-6Zm11 6v8.8h12.2c3.2 0 5.1-1.7 5.1-4.5 0-2.7-1.9-4.3-5.1-4.3H31Z" fill="#ffffff"/>
  <path d="M18 18h27v6H25v9h16.5v6H25v15.5h-7V18Z" fill="url(#gold)"/>
  <circle cx="52.5" cy="48.5" r="2" fill="#f1c46b"/>
  <circle cx="44.5" cy="52.5" r="1.5" fill="#f1c46b" opacity="0.85"/>
  <circle cx="56.5" cy="39.5" r="1.4" fill="#ffffff" opacity="0.75"/>
  <path d="M46 51.7 51 49M53.8 47.1l2-5.5" fill="none" stroke="#f1c46b" stroke-width="1.2" stroke-linecap="round" opacity="0.75"/>
</svg>
